# xmcd
#
# Track frame offsets:
#	150
#	15472
#	31383
#	42291
#	60232
#	73049
#	87091
#	103376
#	112312
#	125290
#	141423
#	154932
#	166930
#	181638
#	190559
#	203831
#	218370
#	232777
#	247200
#	260106
#
# Disc length: 3637 seconds
#
# Revision: 0
# Processed by: cddbd v1.5PL3 Copyright (c) Steve Scherf et al.
# Submitted via: dBpowerAMP V4.0
#
DISCID=130e3314
DTITLE=Varios - Pa' Amanecer Pisteando
DYEAR=2003
DGENRE=Other
TTITLE0=La Cabrona
TTITLE1=Si decides regresar
TTITLE2=No por que seas tu
TTITLE3=Muchas gracias
TTITLE4=Flor de capomo
TTITLE5=No hay novedad
TTITLE6=Tatuajes
TTITLE7=Con la tierra encima
TTITLE8=Derrotado corazón
TTITLE9=No me conoces aún
TTITLE10=No me hagas menos
TTITLE11=Albur de amor
TTITLE12=Sufro
TTITLE13=Pecosita
TTITLE14=Intenta vivir sin mi
TTITLE15=Señora de tal
TTITLE16=En tu sonrisa
TTITLE17=Un puño de tierra
TTITLE18=El ayudante
TTITLE19=Media vida
EXTD=Buen CD
EXTT0=
EXTT1=
EXTT2=
EXTT3=
EXTT4=
EXTT5=
EXTT6=
EXTT7=
EXTT8=
EXTT9=
EXTT10=
EXTT11=
EXTT12=
EXTT13=
EXTT14=
EXTT15=
EXTT16=
EXTT17=
EXTT18=
EXTT19=
PLAYORDER=
